<svg id="svg" version="1.1" xmlns="http://www.w3.org/2000/svg" xmlns:xlink="http://www.w3.org/1999/xlink" width="400" height="400" viewBox="0, 0, 400,400"><g id="svgg"><path id="path0" d="M78.500 0.282 C 78.005 0.378,77.600 0.623,77.600 0.828 C 77.600 1.033,77.150 1.200,76.600 1.200 C 76.050 1.200,75.600 1.380,75.600 1.600 C 75.600 1.820,75.060 2.000,74.400 2.000 C 73.740 2.000,73.200 2.180,73.200 2.400 C 73.200 2.620,72.660 2.800,72.000 2.800 C 71.340 2.800,70.800 2.980,70.800 3.200 C 70.800 3.420,70.260 3.600,69.600 3.600 C 68.940 3.600,68.400 3.741,68.400 3.913 C 68.400 4.085,67.915 4.266,67.322 4.315 C 66.730 4.364,66.145 4.538,66.022 4.702 C 65.788 5.016,65.057 5.230,63.931 5.315 C 63.560 5.343,63.344 5.509,63.451 5.683 C 63.559 5.857,63.007 6.000,62.224 6.000 C 61.441 6.000,60.800 6.180,60.800 6.400 C 60.800 6.620,60.249 6.800,59.576 6.800 C 58.863 6.800,58.456 6.967,58.600 7.200 C 58.740 7.427,58.404 7.600,57.824 7.600 C 57.261 7.600,56.800 7.759,56.800 7.954 C 56.800 8.149,55.813 8.431,54.606 8.582 C 53.400 8.733,52.309 9.023,52.183 9.228 C 52.056 9.433,51.423 9.600,50.776 9.600 C 50.129 9.600,49.600 9.780,49.600 10.000 C 49.600 10.220,49.060 10.400,48.400 10.400 C 47.740 10.400,47.200 10.580,47.200 10.800 C 47.200 11.020,46.649 11.200,45.976 11.200 C 45.263 11.200,44.856 11.367,45.000 11.600 C 45.147 11.839,44.663 12.000,43.800 12.000 C 42.937 12.000,42.453 12.161,42.600 12.400 C 42.744 12.633,42.337 12.800,41.624 12.800 C 40.951 12.800,40.400 12.980,40.400 13.200 C 40.400 13.420,39.860 13.600,39.200 13.600 C 38.540 13.600,38.000 13.741,38.000 13.913 C 38.000 14.085,37.515 14.266,36.922 14.315 C 36.330 14.364,35.745 14.538,35.622 14.702 C 35.500 14.866,35.040 15.052,34.600 15.116 C 33.825 15.228,32.535 15.719,31.105 16.447 C 30.723 16.641,30.059 16.800,29.629 16.800 C 29.199 16.800,28.736 16.980,28.600 17.200 C 28.464 17.420,27.924 17.600,27.400 17.600 C 26.876 17.600,26.336 17.780,26.200 18.000 C 26.064 18.220,25.513 18.400,24.976 18.400 C 24.439 18.400,24.000 18.580,24.000 18.800 C 24.000 19.020,23.280 19.200,22.400 19.200 C 21.520 19.200,20.800 19.380,20.800 19.600 C 20.800 19.820,20.260 20.000,19.600 20.000 C 18.940 20.000,18.400 20.180,18.400 20.400 C 18.400 20.620,18.040 20.800,17.600 20.800 C 17.160 20.800,16.800 20.980,16.800 21.200 C 16.800 21.420,16.523 21.600,16.185 21.600 C 15.524 21.600,12.000 25.019,12.000 25.660 C 12.000 25.873,11.775 25.918,11.500 25.759 C 11.225 25.601,11.120 25.606,11.267 25.769 C 11.413 25.933,11.098 26.933,10.567 27.991 C 7.889 33.323,11.286 45.600,15.440 45.600 C 15.748 45.600,16.000 45.780,16.000 46.000 C 16.000 46.220,16.360 46.400,16.800 46.400 C 17.240 46.400,17.600 46.580,17.600 46.800 C 17.600 47.020,17.960 47.200,18.400 47.200 C 18.840 47.200,19.200 47.388,19.200 47.619 C 19.200 47.889,20.823 48.015,23.800 47.973 C 26.330 47.938,28.400 47.750,28.400 47.555 C 28.400 47.360,28.861 47.200,29.424 47.200 C 30.004 47.200,30.340 47.027,30.200 46.800 C 30.051 46.558,30.596 46.400,31.576 46.400 C 32.469 46.400,33.200 46.220,33.200 46.000 C 33.200 45.780,33.740 45.600,34.400 45.600 C 35.060 45.600,35.600 45.420,35.600 45.200 C 35.600 44.980,36.039 44.800,36.576 44.800 C 37.113 44.800,37.664 44.620,37.800 44.400 C 37.936 44.180,38.487 44.000,39.024 44.000 C 39.561 44.000,40.000 43.820,40.000 43.600 C 40.000 43.380,40.540 43.200,41.200 43.200 C 41.860 43.200,42.400 43.020,42.400 42.800 C 42.400 42.580,42.940 42.400,43.600 42.400 C 44.260 42.400,44.800 42.220,44.800 42.000 C 44.800 41.780,45.340 41.600,46.000 41.600 C 46.660 41.600,47.200 41.430,47.200 41.223 C 47.200 41.016,47.560 40.915,48.000 41.000 C 48.440 41.085,48.800 41.024,48.800 40.864 C 48.800 40.705,49.295 40.534,49.900 40.484 C 50.505 40.434,51.060 40.215,51.133 39.997 C 51.207 39.778,51.837 39.594,52.533 39.587 C 53.230 39.580,54.132 39.323,54.539 39.015 C 54.945 38.707,55.530 38.552,55.839 38.670 C 56.147 38.789,56.400 38.686,56.400 38.443 C 56.400 38.199,56.745 38.000,57.167 38.000 C 57.588 38.000,57.993 37.828,58.067 37.618 C 58.140 37.407,58.863 37.191,59.674 37.137 C 60.485 37.084,61.059 36.896,60.951 36.720 C 60.842 36.544,61.393 36.400,62.176 36.400 C 62.959 36.400,63.600 36.220,63.600 36.000 C 63.600 35.780,64.140 35.600,64.800 35.600 C 65.460 35.600,66.000 35.420,66.000 35.200 C 66.000 34.980,66.339 34.800,66.754 34.800 C 67.169 34.800,68.011 34.539,68.626 34.220 C 69.240 33.902,69.891 33.732,70.071 33.844 C 70.252 33.956,70.400 33.857,70.400 33.624 C 70.400 33.391,70.929 33.200,71.576 33.200 C 72.223 33.200,72.864 33.020,73.000 32.800 C 73.136 32.580,73.697 32.400,74.247 32.400 C 74.812 32.400,75.140 32.226,75.000 32.000 C 74.853 31.762,75.329 31.600,76.176 31.600 C 76.959 31.600,77.600 31.420,77.600 31.200 C 77.600 30.980,78.039 30.800,78.576 30.800 C 79.113 30.800,79.664 30.620,79.800 30.400 C 79.936 30.180,80.487 30.000,81.024 30.000 C 81.561 30.000,82.000 29.820,82.000 29.600 C 82.000 29.380,82.630 29.200,83.400 29.200 C 84.170 29.200,84.800 29.020,84.800 28.800 C 84.800 28.580,85.520 28.400,86.400 28.400 C 87.280 28.400,88.000 28.580,88.000 28.800 C 88.000 29.020,88.900 29.200,90.000 29.200 C 91.100 29.200,92.000 29.363,92.000 29.561 C 92.000 29.760,92.900 30.030,94.000 30.161 C 95.100 30.293,96.900 30.507,98.000 30.639 C 99.100 30.770,99.899 31.040,99.776 31.239 C 99.653 31.437,100.463 31.600,101.576 31.600 C 102.689 31.600,103.600 31.780,103.600 32.000 C 103.600 32.220,104.500 32.400,105.600 32.400 C 106.700 32.400,107.600 32.580,107.600 32.800 C 107.600 33.020,108.410 33.200,109.400 33.200 C 110.390 33.200,111.200 33.380,111.200 33.600 C 111.200 33.820,111.335 33.979,111.500 33.953 C 112.622 33.775,115.610 34.061,115.444 34.329 C 115.332 34.511,116.176 34.701,117.320 34.752 C 118.464 34.803,119.460 35.014,119.533 35.222 C 119.607 35.430,120.462 35.600,121.433 35.600 C 122.405 35.600,123.200 35.780,123.200 36.000 C 123.200 36.220,123.999 36.400,124.976 36.400 C 125.953 36.400,126.864 36.580,127.000 36.800 C 127.136 37.020,128.036 37.200,129.000 37.200 C 129.964 37.200,130.864 37.380,131.000 37.600 C 131.136 37.820,132.047 38.000,133.024 38.000 C 134.001 38.000,134.800 38.180,134.800 38.400 C 134.800 38.620,135.664 38.800,136.720 38.800 C 137.776 38.800,138.811 38.963,139.020 39.161 C 139.229 39.360,140.210 39.614,141.200 39.725 C 144.916 40.144,146.480 40.414,147.130 40.748 C 147.499 40.937,148.308 41.065,148.929 41.032 C 149.550 40.998,150.146 41.113,150.253 41.286 C 150.360 41.458,151.337 41.600,152.424 41.600 C 153.511 41.600,154.400 41.780,154.400 42.000 C 154.400 42.220,155.060 42.400,155.867 42.400 L 157.334 42.400 154.267 45.398 C 152.580 47.047,151.200 48.588,151.200 48.822 C 151.200 49.056,151.020 49.136,150.800 49.000 C 150.580 48.864,150.400 49.050,150.400 49.414 C 150.400 49.777,150.042 50.169,149.604 50.283 C 149.167 50.397,148.908 50.650,149.028 50.845 C 149.149 51.040,149.012 51.202,148.724 51.204 C 148.436 51.206,147.750 51.782,147.200 52.485 C 146.650 53.188,145.870 54.041,145.466 54.381 C 145.063 54.722,144.360 55.315,143.905 55.700 C 143.450 56.085,143.184 56.400,143.315 56.400 C 143.446 56.400,142.618 57.356,141.476 58.524 C 140.334 59.692,139.310 60.616,139.200 60.577 C 139.090 60.537,138.589 60.932,138.086 61.453 C 137.583 61.974,137.297 62.400,137.450 62.400 C 137.603 62.400,136.685 63.364,135.409 64.542 L 133.089 66.683 134.404 67.142 C 136.246 67.784,169.731 67.780,172.283 67.137 C 173.862 66.740,174.871 65.927,179.485 61.337 C 182.436 58.402,185.019 56.000,185.225 56.000 C 185.431 56.000,185.600 55.719,185.600 55.376 C 185.600 55.033,185.735 54.830,185.900 54.924 C 186.295 55.149,188.019 53.352,187.707 53.041 C 187.575 52.908,187.767 52.800,188.133 52.800 C 188.500 52.800,188.800 52.617,188.800 52.393 C 188.800 51.385,193.622 47.200,194.784 47.200 C 195.427 47.200,196.064 47.020,196.200 46.800 C 196.336 46.580,197.517 46.400,198.824 46.400 C 200.141 46.400,201.200 46.222,201.200 46.000 C 201.200 45.780,202.201 45.600,203.424 45.600 C 204.804 45.600,205.553 45.448,205.400 45.200 C 205.247 44.952,205.996 44.800,207.376 44.800 C 208.599 44.800,209.600 44.620,209.600 44.400 C 209.600 44.175,210.725 44.000,212.176 44.000 C 213.593 44.000,214.864 43.820,215.000 43.600 C 215.136 43.380,216.237 43.200,217.447 43.200 C 218.812 43.200,219.553 43.048,219.400 42.800 C 219.245 42.549,220.129 42.400,221.776 42.400 C 223.219 42.400,224.400 42.241,224.400 42.047 C 224.400 41.852,225.615 41.587,227.100 41.458 C 231.703 41.057,232.568 40.955,233.600 40.690 C 234.150 40.548,235.376 40.339,236.325 40.225 C 237.273 40.110,238.185 39.933,238.351 39.831 C 238.516 39.728,239.540 39.606,240.626 39.559 C 241.712 39.513,242.780 39.339,243.000 39.174 C 243.220 39.008,244.210 38.825,245.200 38.766 C 246.190 38.707,247.180 38.529,247.400 38.371 C 247.772 38.103,248.815 37.949,254.300 37.354 C 255.455 37.228,256.400 36.995,256.400 36.834 C 256.400 36.592,257.759 36.433,261.082 36.288 C 261.348 36.276,261.472 36.117,261.359 35.933 C 261.245 35.750,262.323 35.600,263.753 35.600 C 265.183 35.600,266.464 35.420,266.600 35.200 C 266.736 34.980,267.701 34.800,268.744 34.800 C 269.787 34.800,270.811 34.630,271.020 34.423 C 271.229 34.215,272.345 34.003,273.500 33.951 C 274.655 33.899,275.600 33.709,275.600 33.529 C 275.600 33.348,276.755 33.200,278.167 33.200 C 279.578 33.200,280.793 33.030,280.867 32.822 C 280.940 32.614,281.936 32.403,283.080 32.352 C 284.224 32.301,285.068 32.111,284.956 31.929 C 284.844 31.748,285.854 31.600,287.200 31.600 C 288.730 31.600,289.555 31.450,289.400 31.200 C 289.246 30.950,290.063 30.800,291.576 30.800 C 292.925 30.800,294.000 30.623,294.000 30.400 C 294.000 30.176,295.107 30.000,296.520 30.000 C 297.906 30.000,299.211 29.830,299.420 29.623 C 299.629 29.415,300.736 29.204,301.880 29.152 C 303.024 29.101,303.868 28.911,303.756 28.729 C 303.644 28.548,304.823 28.400,306.376 28.400 C 307.992 28.400,309.200 28.571,309.200 28.800 C 309.200 29.020,309.740 29.200,310.400 29.200 C 311.060 29.200,311.600 29.380,311.600 29.600 C 311.600 29.820,312.050 30.000,312.600 30.000 C 313.150 30.000,313.600 30.180,313.600 30.400 C 313.600 30.620,314.129 30.800,314.776 30.800 C 315.423 30.800,316.064 30.980,316.200 31.200 C 316.336 31.420,316.887 31.600,317.424 31.600 C 317.961 31.600,318.400 31.780,318.400 32.000 C 318.400 32.220,318.940 32.400,319.600 32.400 C 320.260 32.400,320.800 32.580,320.800 32.800 C 320.800 33.020,321.340 33.200,322.000 33.200 C 322.660 33.200,323.200 33.380,323.200 33.600 C 323.200 33.820,323.740 34.000,324.400 34.000 C 325.060 34.000,325.600 34.180,325.600 34.400 C 325.600 34.620,326.050 34.800,326.600 34.800 C 327.150 34.800,327.600 34.950,327.600 35.133 C 327.600 35.317,327.866 35.467,328.192 35.467 C 328.999 35.467,332.111 36.462,332.580 36.870 C 332.789 37.051,333.374 37.200,333.880 37.200 C 334.386 37.200,334.800 37.380,334.800 37.600 C 334.800 37.820,335.340 38.000,336.000 38.000 C 336.660 38.000,337.200 38.180,337.200 38.400 C 337.200 38.620,337.710 38.800,338.333 38.800 C 338.957 38.800,339.592 38.925,339.745 39.078 C 339.898 39.231,340.325 39.401,340.694 39.455 C 341.064 39.509,341.733 39.729,342.183 39.944 C 343.681 40.659,345.688 41.193,346.046 40.972 C 346.241 40.851,346.400 40.943,346.400 41.176 C 346.400 41.409,346.929 41.600,347.576 41.600 C 348.223 41.600,348.864 41.780,349.000 42.000 C 349.136 42.220,349.687 42.400,350.224 42.400 C 350.761 42.400,351.200 42.580,351.200 42.800 C 351.200 43.020,351.740 43.200,352.400 43.200 C 353.060 43.200,353.600 43.380,353.600 43.600 C 353.600 43.820,354.140 44.000,354.800 44.000 C 355.460 44.000,356.000 44.180,356.000 44.400 C 356.000 44.620,356.439 44.800,356.976 44.800 C 357.513 44.800,358.064 44.980,358.200 45.200 C 358.336 45.420,358.887 45.600,359.424 45.600 C 359.961 45.600,360.400 45.780,360.400 46.000 C 360.400 46.220,360.940 46.400,361.600 46.400 C 362.260 46.400,362.800 46.580,362.800 46.800 C 362.800 47.020,363.340 47.200,364.000 47.200 C 364.660 47.200,365.200 47.380,365.200 47.600 C 365.200 48.255,372.914 48.101,374.226 47.420 C 374.840 47.102,375.491 46.932,375.671 47.044 C 375.852 47.156,376.000 47.057,376.000 46.824 C 376.000 46.591,376.274 46.400,376.609 46.400 C 377.386 46.400,381.211 42.563,381.999 40.994 C 382.329 40.337,382.726 39.705,382.881 39.588 C 383.036 39.471,383.208 38.706,383.263 37.888 C 383.318 37.070,383.507 36.400,383.682 36.400 C 384.148 36.400,384.071 31.291,383.600 31.000 C 383.380 30.864,383.196 30.268,383.191 29.676 C 383.186 29.084,382.830 28.150,382.400 27.600 C 381.970 27.050,381.614 26.453,381.609 26.274 C 381.592 25.667,377.257 21.600,376.626 21.600 C 376.282 21.600,376.000 21.420,376.000 21.200 C 376.000 20.980,375.640 20.800,375.200 20.800 C 374.760 20.800,374.400 20.620,374.400 20.400 C 374.400 20.180,373.950 20.000,373.400 20.000 C 372.850 20.000,372.400 19.820,372.400 19.600 C 372.400 19.380,371.871 19.200,371.224 19.200 C 370.577 19.200,369.936 19.020,369.800 18.800 C 369.664 18.580,369.113 18.400,368.576 18.400 C 368.039 18.400,367.600 18.220,367.600 18.000 C 367.600 17.780,367.060 17.600,366.400 17.600 C 365.740 17.600,365.200 17.420,365.200 17.200 C 365.200 16.980,364.660 16.800,364.000 16.800 C 363.340 16.800,362.800 16.620,362.800 16.400 C 362.800 16.180,362.260 16.000,361.600 16.000 C 360.940 16.000,360.400 15.820,360.400 15.600 C 360.400 15.380,359.860 15.200,359.200 15.200 C 358.540 15.200,358.000 15.020,358.000 14.800 C 358.000 14.580,357.460 14.400,356.800 14.400 C 356.140 14.400,355.600 14.209,355.600 13.976 C 355.600 13.743,355.452 13.644,355.271 13.756 C 355.091 13.868,354.456 13.707,353.862 13.398 C 352.673 12.782,352.743 12.800,351.576 12.800 C 351.123 12.800,350.850 12.643,350.969 12.450 C 351.088 12.258,350.701 12.100,350.109 12.100 C 349.518 12.100,348.966 11.898,348.883 11.650 C 348.801 11.403,348.208 11.200,347.567 11.200 C 346.925 11.200,346.400 11.059,346.400 10.887 C 346.400 10.715,345.923 10.535,345.340 10.487 C 344.758 10.439,344.083 10.243,343.840 10.052 C 343.320 9.641,340.435 9.026,339.660 9.160 C 339.363 9.211,339.238 9.061,339.383 8.827 C 339.552 8.554,339.123 8.400,338.200 8.400 C 337.337 8.400,336.853 8.239,337.000 8.000 C 337.144 7.767,336.737 7.600,336.024 7.600 C 335.351 7.600,334.800 7.420,334.800 7.200 C 334.800 6.980,334.260 6.800,333.600 6.800 C 332.940 6.800,332.400 6.620,332.400 6.400 C 332.400 6.180,331.871 6.000,331.224 6.000 C 330.577 6.000,329.936 5.820,329.800 5.600 C 329.664 5.380,329.113 5.200,328.576 5.200 C 328.039 5.200,327.600 5.020,327.600 4.800 C 327.600 4.580,327.060 4.400,326.400 4.400 C 325.740 4.400,325.200 4.220,325.200 4.000 C 325.200 3.780,324.660 3.600,324.000 3.600 C 323.340 3.600,322.800 3.420,322.800 3.200 C 322.800 2.980,322.350 2.800,321.800 2.800 C 321.250 2.800,320.800 2.620,320.800 2.400 C 320.800 2.180,320.271 2.000,319.624 2.000 C 318.977 2.000,318.336 1.820,318.200 1.600 C 318.064 1.380,317.413 1.200,316.753 1.200 C 316.093 1.200,315.655 1.035,315.780 0.832 C 316.178 0.189,310.815 -0.123,304.202 0.158 C 300.681 0.308,297.740 0.603,297.667 0.815 C 297.593 1.027,296.468 1.200,295.167 1.200 C 293.865 1.200,292.800 1.363,292.800 1.561 C 292.800 1.913,291.115 2.190,286.200 2.645 C 284.880 2.767,283.629 3.032,283.420 3.234 C 283.211 3.435,282.101 3.600,280.953 3.600 C 279.806 3.600,278.807 3.770,278.733 3.978 C 278.660 4.185,277.565 4.396,276.300 4.446 C 275.035 4.496,274.000 4.686,274.000 4.868 C 274.000 5.051,273.100 5.200,272.000 5.200 C 270.900 5.200,270.000 5.365,270.000 5.566 C 270.000 5.767,268.875 6.034,267.500 6.159 C 261.052 6.745,260.000 6.896,260.000 7.236 C 260.000 7.436,258.920 7.600,257.600 7.600 C 256.267 7.600,255.200 7.778,255.200 8.000 C 255.200 8.220,254.210 8.400,253.000 8.400 C 251.790 8.400,250.800 8.542,250.800 8.715 C 250.800 8.888,250.035 9.000,249.100 8.963 C 248.165 8.925,247.078 9.064,246.684 9.270 C 246.290 9.477,245.075 9.680,243.984 9.723 C 242.893 9.765,242.001 9.900,242.000 10.022 C 242.000 10.144,241.325 10.287,240.500 10.339 C 239.675 10.392,238.460 10.532,237.800 10.651 C 237.140 10.770,235.700 10.959,234.600 11.070 C 233.500 11.182,232.429 11.437,232.220 11.637 C 232.011 11.837,230.886 12.000,229.720 12.000 C 228.554 12.000,227.600 12.180,227.600 12.400 C 227.600 12.620,226.610 12.800,225.400 12.800 C 224.190 12.800,223.200 12.965,223.200 13.166 C 223.200 13.367,222.075 13.631,220.700 13.752 C 215.737 14.191,213.793 14.480,213.420 14.837 C 213.211 15.037,212.075 15.200,210.896 15.200 C 209.569 15.200,208.847 15.352,209.000 15.600 C 209.155 15.851,208.279 16.000,206.647 16.000 C 205.217 16.000,203.936 16.180,203.800 16.400 C 203.664 16.620,202.584 16.800,201.400 16.800 C 200.216 16.800,199.136 16.980,199.000 17.200 C 198.864 17.420,197.773 17.600,196.576 17.600 C 195.379 17.600,194.400 17.780,194.400 18.000 C 194.400 18.220,193.500 18.400,192.400 18.400 C 191.300 18.400,190.400 18.580,190.400 18.800 C 190.400 19.327,184.126 19.327,183.800 18.800 C 183.664 18.580,182.753 18.400,181.776 18.400 C 180.799 18.400,180.000 18.220,180.000 18.000 C 180.000 17.780,179.111 17.600,178.024 17.600 C 176.937 17.600,175.936 17.420,175.800 17.200 C 175.664 16.980,174.843 16.800,173.976 16.800 C 173.109 16.800,172.400 16.620,172.400 16.400 C 172.400 16.180,171.500 16.000,170.400 16.000 C 169.300 16.000,168.400 15.820,168.400 15.600 C 168.400 15.380,167.500 15.200,166.400 15.200 C 165.300 15.200,164.400 15.037,164.400 14.839 C 164.400 14.640,163.545 14.382,162.500 14.265 C 161.455 14.148,159.610 13.850,158.400 13.603 C 157.190 13.355,155.435 13.055,154.500 12.936 C 153.565 12.817,152.800 12.574,152.800 12.397 C 152.800 12.219,151.855 11.975,150.700 11.855 C 146.842 11.453,145.003 11.121,144.620 10.759 C 144.411 10.562,143.567 10.400,142.744 10.400 C 141.921 10.400,141.143 10.231,141.016 10.025 C 140.888 9.819,140.084 9.660,139.229 9.672 C 138.374 9.684,137.478 9.572,137.239 9.424 C 136.636 9.052,135.450 8.840,132.287 8.540 C 130.795 8.398,129.480 8.129,129.364 7.941 C 129.248 7.754,128.364 7.600,127.400 7.600 C 126.436 7.600,125.536 7.420,125.400 7.200 C 125.264 6.980,124.454 6.800,123.600 6.800 C 122.746 6.800,121.936 6.620,121.800 6.400 C 121.664 6.180,120.764 6.000,119.800 6.000 C 118.836 6.000,117.936 5.820,117.800 5.600 C 117.664 5.380,116.764 5.200,115.800 5.200 C 114.836 5.200,113.936 5.020,113.800 4.800 C 113.664 4.580,112.764 4.400,111.800 4.400 C 110.836 4.400,109.936 4.220,109.800 4.000 C 109.664 3.780,108.753 3.600,107.776 3.600 C 106.799 3.600,106.000 3.420,106.000 3.200 C 106.000 2.980,105.201 2.800,104.224 2.800 C 103.247 2.800,102.336 2.620,102.200 2.400 C 102.064 2.180,101.189 2.000,100.256 2.000 C 99.323 2.000,98.389 1.837,98.180 1.639 C 97.971 1.440,96.990 1.179,96.000 1.058 C 95.010 0.937,93.120 0.664,91.800 0.453 C 89.412 0.069,80.216 -0.048,78.500 0.282 " stroke="none" fill="#835434" fill-rule="evenodd"></path><path id="path1" d="M51.862 122.094 C 51.608 122.256,50.903 122.391,50.295 122.394 C 49.687 122.397,48.877 122.556,48.495 122.748 C 48.113 122.939,46.855 123.569,45.700 124.149 C 44.545 124.729,43.600 125.100,43.600 124.973 C 43.600 124.846,43.362 124.981,43.071 125.271 C 42.780 125.562,41.881 126.250,41.074 126.800 C 40.266 127.350,39.604 127.935,39.603 128.100 C 39.601 128.265,39.319 128.400,38.976 128.400 C 38.633 128.400,38.456 128.567,38.582 128.771 C 38.708 128.975,38.478 129.248,38.070 129.378 C 37.662 129.507,37.089 130.060,36.796 130.607 C 36.504 131.153,36.115 131.600,35.932 131.600 C 35.750 131.600,35.600 131.881,35.600 132.224 C 35.600 132.567,35.420 132.736,35.200 132.600 C 34.980 132.464,34.800 132.723,34.800 133.176 C 34.800 133.629,34.620 134.000,34.400 134.000 C 34.180 134.000,34.000 134.281,34.000 134.624 C 34.000 134.967,33.858 135.160,33.685 135.052 C 33.512 134.945,33.140 135.430,32.859 136.129 C 32.578 136.828,32.179 137.713,31.974 138.095 C 31.768 138.477,31.600 139.152,31.600 139.595 C 31.600 140.038,31.420 140.400,31.200 140.400 C 30.980 140.400,30.800 141.030,30.800 141.800 C 30.800 142.570,30.620 143.200,30.400 143.200 C 29.780 143.200,29.874 154.504,30.500 155.179 C 30.902 155.612,30.896 155.659,30.470 155.417 C 30.038 155.171,30.031 155.288,30.433 156.058 C 31.448 158.002,31.600 158.410,31.600 159.195 C 31.600 159.638,31.780 160.000,32.000 160.000 C 32.220 160.000,32.400 160.326,32.400 160.725 C 32.400 161.123,32.725 161.798,33.122 162.225 C 33.906 163.066,34.000 163.280,34.000 164.224 C 34.000 164.567,34.167 164.744,34.371 164.618 C 34.575 164.492,34.859 164.757,35.002 165.207 C 35.145 165.657,35.698 166.462,36.231 166.995 C 36.764 167.528,37.200 168.152,37.200 168.382 C 37.200 168.612,37.361 168.800,37.558 168.800 C 37.754 168.800,38.512 169.357,39.240 170.038 C 41.010 171.691,43.486 173.335,45.200 173.995 C 45.970 174.291,46.780 174.663,47.000 174.821 C 48.868 176.162,51.753 176.200,152.800 176.200 C 258.976 176.200,254.821 176.279,259.403 174.175 C 260.721 173.570,261.914 173.096,262.052 173.122 C 262.191 173.147,262.624 172.815,263.014 172.384 C 263.405 171.953,263.977 171.600,264.286 171.600 C 264.594 171.600,264.736 171.420,264.600 171.200 C 264.464 170.980,264.517 170.800,264.718 170.800 C 264.919 170.800,265.526 170.395,266.067 169.900 C 266.608 169.405,267.523 168.650,268.101 168.223 C 268.679 167.796,269.061 167.299,268.951 167.120 C 268.840 166.941,269.030 166.687,269.372 166.555 C 269.715 166.424,269.895 166.154,269.772 165.955 C 269.650 165.757,269.831 165.486,270.175 165.354 C 270.519 165.222,270.800 164.774,270.800 164.357 C 270.800 163.941,270.980 163.600,271.200 163.600 C 271.420 163.600,271.600 163.319,271.600 162.976 C 271.600 162.633,271.784 162.467,272.010 162.606 C 272.235 162.745,272.394 162.711,272.363 162.530 C 272.217 161.689,272.433 160.773,272.733 160.959 C 272.917 161.072,273.074 160.948,273.082 160.682 C 273.108 159.902,273.380 159.015,273.661 158.800 C 273.804 158.690,274.025 158.060,274.152 157.400 C 274.278 156.740,274.572 155.300,274.803 154.200 C 275.263 152.021,275.269 145.200,274.812 145.200 C 274.656 145.200,274.517 144.615,274.503 143.900 C 274.475 142.435,274.305 141.603,273.903 140.962 C 273.753 140.721,273.510 139.776,273.363 138.862 C 273.217 137.948,272.963 137.200,272.797 137.200 C 272.440 137.200,271.364 134.743,271.515 134.270 C 271.573 134.089,271.462 134.038,271.270 134.157 C 271.078 134.275,270.668 133.884,270.360 133.286 C 270.052 132.689,269.485 131.965,269.100 131.677 C 268.715 131.390,268.400 130.895,268.400 130.577 C 268.400 130.260,268.222 130.000,268.005 130.000 C 267.396 130.000,266.000 128.685,266.000 128.111 C 266.000 127.830,265.724 127.600,265.387 127.600 C 265.051 127.600,264.676 127.343,264.555 127.028 C 264.435 126.713,263.810 126.273,263.168 126.049 C 262.526 125.825,262.000 125.491,262.000 125.306 C 262.000 125.121,261.598 124.940,261.106 124.903 C 260.614 124.866,260.149 124.648,260.073 124.418 C 259.996 124.188,259.588 124.000,259.167 124.000 C 258.745 124.000,258.400 123.820,258.400 123.600 C 258.400 123.380,257.770 123.200,257.000 123.200 C 256.230 123.200,255.600 123.020,255.600 122.800 C 255.600 122.580,255.180 122.400,254.667 122.400 C 254.153 122.400,253.625 122.291,253.492 122.159 C 253.142 121.809,52.411 121.744,51.862 122.094 M28.600 231.120 C 27.500 231.473,26.540 231.906,26.467 232.081 C 26.393 232.257,25.888 232.400,25.343 232.400 C 24.785 232.400,24.461 232.574,24.600 232.800 C 24.736 233.020,24.477 233.200,24.024 233.200 C 23.571 233.200,23.200 233.380,23.200 233.600 C 23.200 233.820,22.930 234.000,22.600 234.000 C 22.270 234.000,22.000 234.180,22.000 234.400 C 22.000 234.620,21.730 234.800,21.400 234.800 C 21.070 234.800,20.800 234.980,20.800 235.200 C 20.800 235.420,20.440 235.600,20.000 235.600 C 19.560 235.600,19.200 235.801,19.200 236.047 C 19.200 236.560,16.078 239.600,15.551 239.600 C 15.358 239.600,15.200 239.920,15.200 240.312 C 15.200 240.703,14.850 241.276,14.421 241.585 C 13.993 241.893,13.725 242.278,13.825 242.441 C 13.925 242.603,13.773 242.975,13.487 243.268 C 13.200 243.560,12.727 244.385,12.435 245.100 C 12.142 245.815,11.783 246.400,11.637 246.400 C 11.490 246.400,11.341 246.789,11.305 247.264 C 11.269 247.739,11.096 248.234,10.920 248.364 C 10.590 248.608,10.561 248.760,10.460 250.824 C 10.427 251.497,10.236 251.946,10.037 251.823 C 9.434 251.450,9.617 263.142,10.233 264.328 C 10.522 264.886,10.668 265.491,10.556 265.671 C 10.444 265.852,10.504 266.000,10.689 266.000 C 10.874 266.000,11.063 266.454,11.109 267.008 C 11.155 267.563,11.485 268.463,11.842 269.008 C 12.200 269.554,12.336 270.006,12.146 270.013 C 11.956 270.020,12.088 270.245,12.440 270.513 C 12.792 270.781,13.080 271.090,13.081 271.200 C 13.087 271.972,13.725 273.170,14.029 272.982 C 14.233 272.856,14.400 273.021,14.400 273.348 C 14.400 274.130,20.744 280.482,21.227 280.183 C 21.432 280.057,21.600 280.143,21.600 280.376 C 21.600 280.609,21.881 280.800,22.224 280.800 C 22.567 280.800,22.753 280.953,22.637 281.140 C 22.400 281.524,23.160 281.926,26.600 283.236 C 27.920 283.739,29.093 284.285,29.208 284.449 C 29.322 284.614,30.357 284.805,31.508 284.874 C 32.658 284.943,33.600 285.130,33.600 285.289 C 33.600 285.447,37.335 285.491,41.900 285.386 C 46.465 285.281,65.500 285.062,84.200 284.898 L 118.200 284.600 118.410 257.800 C 118.526 243.060,118.557 230.859,118.479 230.687 C 118.168 230.001,30.774 230.422,28.600 231.120 M186.153 230.979 C 186.022 231.321,186.069 231.915,186.257 232.300 C 186.446 232.685,186.690 244.610,186.800 258.800 L 187.000 284.600 221.200 284.902 C 240.010 285.069,259.075 285.278,263.567 285.367 C 268.058 285.457,271.502 285.387,271.220 285.213 C 270.913 285.023,271.360 284.887,272.333 284.873 C 273.226 284.861,274.327 284.653,274.779 284.411 C 275.409 284.074,275.601 284.092,275.606 284.486 C 275.611 284.891,275.679 284.895,275.929 284.502 C 276.102 284.228,276.717 283.965,277.294 283.917 C 277.870 283.869,278.255 283.688,278.148 283.515 C 278.040 283.342,278.398 283.200,278.943 283.200 C 279.488 283.200,279.993 283.034,280.067 282.830 C 280.140 282.627,280.455 282.402,280.767 282.330 C 281.078 282.259,281.663 281.885,282.067 281.500 C 282.470 281.115,283.070 280.800,283.400 280.800 C 283.730 280.800,284.000 280.620,284.000 280.400 C 284.000 280.180,284.270 280.000,284.600 280.000 C 284.930 280.000,285.200 279.820,285.200 279.600 C 285.200 279.380,285.500 279.200,285.867 279.200 C 286.233 279.200,286.412 279.078,286.263 278.930 C 285.910 278.576,287.583 276.800,288.270 276.800 C 288.561 276.800,288.779 276.665,288.753 276.500 C 288.632 275.737,288.833 275.173,289.155 275.372 C 289.350 275.492,289.614 275.278,289.743 274.896 C 289.872 274.513,290.702 273.057,291.589 271.660 C 292.475 270.263,293.200 268.958,293.200 268.760 C 293.200 268.562,293.380 268.400,293.600 268.400 C 293.820 268.400,294.000 268.209,294.000 267.976 C 294.000 267.743,293.775 267.680,293.500 267.835 C 293.100 268.061,293.100 268.010,293.500 267.579 C 293.775 267.282,294.000 266.705,294.000 266.296 C 294.000 265.887,294.163 265.653,294.361 265.776 C 294.816 266.057,295.195 263.096,295.451 257.261 C 295.589 254.114,295.519 252.803,295.225 252.985 C 294.948 253.155,294.800 252.602,294.800 251.400 C 294.800 250.270,294.645 249.649,294.400 249.800 C 294.167 249.944,294.000 249.545,294.000 248.847 C 294.000 248.187,293.820 247.536,293.600 247.400 C 293.380 247.264,293.200 246.703,293.200 246.153 C 293.200 245.588,293.026 245.260,292.800 245.400 C 292.580 245.536,292.400 245.277,292.400 244.824 C 292.400 244.371,292.220 244.000,292.000 244.000 C 291.780 244.000,291.600 243.730,291.600 243.400 C 291.600 243.070,291.409 242.800,291.176 242.800 C 290.943 242.800,290.864 242.620,291.000 242.400 C 291.136 242.180,291.027 242.000,290.757 242.000 C 290.487 242.000,290.372 241.895,290.501 241.766 C 290.794 241.473,289.635 240.087,286.800 237.340 C 283.857 234.489,283.272 234.000,282.800 234.000 C 282.580 234.000,282.400 233.820,282.400 233.600 C 282.400 233.380,282.023 233.200,281.562 233.200 C 281.101 233.200,280.201 232.828,279.562 232.373 C 278.923 231.918,278.400 231.652,278.400 231.783 C 278.400 231.914,277.815 231.701,277.100 231.310 C 275.218 230.282,186.544 229.959,186.153 230.979 M70.300 339.490 C 69.255 339.575,68.400 339.814,68.400 340.022 C 68.400 340.230,68.040 340.400,67.600 340.400 C 67.160 340.400,66.800 340.580,66.800 340.800 C 66.800 341.020,66.440 341.200,66.000 341.200 C 65.560 341.200,65.200 341.342,65.200 341.515 C 65.200 341.688,64.798 341.860,64.306 341.897 C 63.814 341.934,63.349 342.152,63.273 342.382 C 63.196 342.612,62.938 342.800,62.700 342.800 C 62.462 342.800,61.982 343.066,61.634 343.390 C 61.285 343.715,60.235 344.677,59.300 345.528 C 58.365 346.380,57.600 347.284,57.600 347.538 C 57.600 347.792,57.465 347.979,57.300 347.953 C 56.416 347.813,56.000 348.084,56.000 348.800 C 56.000 349.240,55.820 349.600,55.600 349.600 C 55.380 349.600,55.200 349.881,55.200 350.224 C 55.200 350.567,55.058 350.760,54.885 350.652 C 54.712 350.545,54.323 351.030,54.022 351.729 C 53.721 352.428,53.143 353.478,52.737 354.062 C 52.332 354.646,52.000 355.490,52.000 355.938 C 52.000 356.386,51.820 356.864,51.600 357.000 C 51.380 357.136,51.200 357.766,51.200 358.400 C 51.200 359.034,51.013 359.668,50.784 359.810 C 50.265 360.130,50.316 371.901,50.838 372.223 C 51.037 372.346,51.200 372.987,51.200 373.647 C 51.200 374.345,51.367 374.744,51.600 374.600 C 51.833 374.456,52.000 374.863,52.000 375.576 C 52.000 376.249,52.180 376.800,52.400 376.800 C 52.620 376.800,52.779 376.935,52.753 377.100 C 52.623 377.919,52.836 378.825,53.117 378.651 C 53.291 378.544,53.463 378.845,53.499 379.322 C 53.535 379.798,53.752 380.251,53.982 380.327 C 54.212 380.404,54.400 380.682,54.400 380.945 C 54.400 381.208,54.760 381.683,55.200 382.000 C 55.640 382.317,56.000 382.817,56.000 383.112 C 56.000 383.406,56.180 383.536,56.400 383.400 C 56.620 383.264,56.800 383.534,56.800 384.000 C 56.800 384.466,56.980 384.736,57.200 384.600 C 57.420 384.464,57.601 384.588,57.601 384.876 C 57.602 385.164,58.132 385.755,58.779 386.189 C 59.427 386.622,59.881 387.053,59.788 387.145 C 59.498 387.435,64.565 390.791,65.300 390.796 C 65.685 390.798,66.000 390.980,66.000 391.200 C 66.000 391.420,66.551 391.600,67.224 391.600 C 67.937 391.600,68.344 391.767,68.200 392.000 C 68.053 392.238,68.529 392.400,69.376 392.400 C 70.159 392.400,70.800 392.580,70.800 392.800 C 70.800 393.022,71.859 393.200,73.176 393.200 C 74.483 393.200,75.665 393.381,75.801 393.602 C 76.142 394.154,229.861 394.148,230.202 393.596 C 230.337 393.378,231.427 393.200,232.624 393.200 C 233.821 393.200,234.800 393.020,234.800 392.800 C 234.800 392.580,235.250 392.400,235.800 392.400 C 236.350 392.400,236.800 392.220,236.800 392.000 C 236.800 391.780,237.239 391.600,237.776 391.600 C 238.313 391.600,238.866 391.417,239.004 391.193 C 239.142 390.970,239.408 390.882,239.595 390.997 C 239.782 391.113,240.175 390.971,240.468 390.681 C 240.760 390.392,241.630 389.805,242.400 389.378 C 243.170 388.950,244.091 388.285,244.447 387.900 C 244.803 387.515,245.328 387.200,245.614 387.200 C 245.899 387.200,246.035 387.102,245.915 386.982 C 245.645 386.712,248.087 384.188,248.500 384.311 C 248.665 384.360,248.800 384.130,248.800 383.800 C 248.800 383.470,248.958 383.200,249.151 383.200 C 249.345 383.200,249.727 382.660,250.000 382.000 C 250.273 381.340,250.655 380.800,250.849 380.800 C 251.042 380.800,251.200 380.440,251.200 380.000 C 251.200 379.560,251.380 379.200,251.600 379.200 C 251.820 379.200,252.000 378.840,252.000 378.400 C 252.000 377.960,252.180 377.600,252.400 377.600 C 252.620 377.600,252.800 377.251,252.800 376.824 C 252.800 376.397,252.980 375.936,253.200 375.800 C 253.420 375.664,253.600 375.113,253.600 374.576 C 253.600 374.039,253.759 373.600,253.953 373.600 C 254.147 373.600,254.316 372.852,254.329 371.939 C 254.341 371.025,254.524 370.170,254.735 370.039 C 255.442 369.599,254.720 359.445,253.948 358.968 C 253.757 358.850,253.600 358.334,253.600 357.822 C 253.600 357.310,253.339 356.389,253.020 355.774 C 252.702 355.160,252.550 354.482,252.682 354.267 C 252.816 354.050,252.718 354.004,252.462 354.162 C 252.168 354.343,252.000 354.139,252.000 353.602 C 252.000 353.137,251.461 352.181,250.802 351.478 C 250.143 350.775,249.603 349.973,249.602 349.697 C 249.600 349.122,244.499 344.000,243.928 344.000 C 243.722 344.000,243.681 343.792,243.838 343.538 C 244.002 343.273,243.949 343.184,243.713 343.330 C 243.488 343.469,242.892 343.227,242.390 342.792 C 241.888 342.356,241.235 342.000,240.939 342.000 C 240.642 342.000,240.400 341.820,240.400 341.600 C 240.400 341.380,239.950 341.200,239.400 341.200 C 238.850 341.200,238.399 341.065,238.397 340.900 C 238.381 339.378,239.690 339.401,154.200 339.368 C 109.100 339.351,71.345 339.406,70.300 339.490 " stroke="none" fill="#f3d35b" fill-rule="evenodd"></path><path id="path2" d="M74.800 67.200 C 74.800 67.420,74.048 67.600,73.128 67.600 C 71.287 67.600,69.407 68.112,67.062 69.252 C 66.216 69.664,65.271 70.000,64.962 70.000 C 64.653 70.000,64.400 70.180,64.400 70.400 C 64.400 70.620,64.080 70.800,63.688 70.800 C 63.297 70.800,62.717 71.160,62.400 71.600 C 62.083 72.040,61.593 72.400,61.312 72.400 C 61.030 72.400,60.800 72.580,60.800 72.800 C 60.800 73.020,60.649 73.200,60.465 73.200 C 59.991 73.200,56.000 77.143,56.000 77.612 C 56.000 77.825,55.820 78.000,55.600 78.000 C 55.380 78.000,55.200 78.188,55.200 78.417 C 55.200 78.646,54.840 79.220,54.400 79.692 C 53.960 80.164,53.600 80.888,53.600 81.299 C 53.600 81.711,53.420 81.936,53.200 81.800 C 52.980 81.664,52.800 81.923,52.800 82.376 C 52.800 82.829,52.620 83.200,52.400 83.200 C 52.180 83.200,52.000 83.740,52.000 84.400 C 52.000 85.060,51.840 85.600,51.644 85.600 C 50.747 85.600,49.929 100.489,50.780 101.340 C 51.011 101.571,51.200 102.365,51.200 103.104 C 51.200 103.897,51.364 104.346,51.600 104.200 C 51.833 104.056,52.000 104.463,52.000 105.176 C 52.000 105.849,52.180 106.400,52.400 106.400 C 52.620 106.400,52.800 106.760,52.800 107.200 C 52.800 107.640,52.980 108.000,53.200 108.000 C 53.420 108.000,53.600 108.236,53.600 108.525 C 53.600 108.813,53.960 109.436,54.400 109.908 C 54.840 110.380,55.200 110.934,55.200 111.138 C 55.200 111.586,60.911 117.600,61.336 117.600 C 61.500 117.600,62.020 117.960,62.492 118.400 C 62.964 118.840,63.587 119.200,63.875 119.200 C 64.164 119.200,64.400 119.380,64.400 119.600 C 64.400 119.820,64.760 120.000,65.200 120.000 C 65.640 120.000,66.000 120.180,66.000 120.400 C 66.000 120.620,66.414 120.800,66.920 120.800 C 67.426 120.800,68.065 121.025,68.340 121.300 C 69.029 121.989,235.369 122.039,236.839 121.351 C 240.480 119.648,241.600 119.033,241.600 118.737 C 241.600 118.552,241.867 118.400,242.193 118.400 C 243.319 118.400,250.400 111.464,250.400 110.361 C 250.400 110.104,250.715 109.603,251.100 109.247 C 251.485 108.891,251.858 108.330,251.930 108.000 C 252.001 107.670,252.226 107.340,252.430 107.267 C 252.633 107.193,252.800 106.698,252.800 106.167 C 252.800 105.635,252.980 105.200,253.200 105.200 C 253.420 105.200,253.600 104.786,253.600 104.280 C 253.600 103.774,253.762 103.189,253.959 102.980 C 254.784 102.106,255.512 91.040,254.774 90.584 C 254.568 90.457,254.400 89.654,254.400 88.800 C 254.400 87.946,254.220 87.136,254.000 87.000 C 253.780 86.864,253.600 86.431,253.600 86.038 C 253.600 85.645,253.350 84.800,253.044 84.161 C 252.738 83.523,252.177 82.325,251.798 81.500 C 251.419 80.675,250.949 80.000,250.754 80.000 C 250.559 80.000,250.400 79.629,250.400 79.176 C 250.400 78.723,250.220 78.464,250.000 78.600 C 249.780 78.736,249.600 78.659,249.600 78.428 C 249.600 77.729,246.314 74.000,245.699 74.000 C 245.490 74.000,244.754 73.460,244.063 72.800 C 243.372 72.140,242.575 71.600,242.292 71.600 C 242.009 71.600,241.517 71.240,241.200 70.800 C 240.883 70.360,240.303 70.000,239.912 70.000 C 239.520 70.000,239.200 69.820,239.200 69.600 C 239.200 69.380,238.750 69.200,238.200 69.200 C 237.650 69.200,237.200 69.020,237.200 68.800 C 237.200 68.580,236.660 68.400,236.000 68.400 C 235.340 68.400,234.800 68.220,234.800 68.000 C 234.800 67.780,233.911 67.600,232.824 67.600 C 231.737 67.600,230.739 67.425,230.606 67.210 C 230.162 66.491,174.212 66.670,172.810 67.395 C 171.056 68.302,133.693 68.307,133.345 67.400 C 133.064 66.668,74.800 66.469,74.800 67.200 M297.300 81.826 C 296.365 82.387,295.600 83.105,295.600 83.423 C 295.600 83.740,295.420 84.000,295.200 84.000 C 294.980 84.000,294.800 84.360,294.800 84.800 C 294.800 85.240,294.646 85.600,294.458 85.600 C 294.271 85.600,294.081 86.950,294.037 88.600 C 293.954 91.755,294.421 92.430,295.651 90.932 C 298.541 87.414,303.242 87.043,306.714 90.059 C 308.625 91.719,308.800 91.547,308.800 88.000 C 308.800 86.133,308.633 84.800,308.400 84.800 C 308.180 84.800,308.000 84.471,308.000 84.070 C 308.000 83.269,306.429 81.600,305.674 81.600 C 305.413 81.600,305.200 81.420,305.200 81.200 C 305.200 80.269,299.090 80.754,297.300 81.826 M297.659 108.982 L 294.000 112.764 294.000 115.158 C 294.000 116.475,294.180 117.664,294.400 117.800 C 294.620 117.936,294.800 118.363,294.800 118.749 C 294.800 119.767,296.699 121.420,299.000 122.404 C 300.910 123.221,301.408 123.237,304.147 122.569 C 305.431 122.255,308.000 120.078,308.000 119.303 C 308.000 119.026,308.180 118.800,308.400 118.800 C 308.635 118.800,308.800 117.402,308.800 115.406 L 308.800 112.011 305.394 108.606 C 301.264 104.475,302.056 104.437,297.659 108.982 M36.093 130.800 C 35.818 131.240,35.731 131.600,35.900 131.600 C 36.069 131.600,36.432 131.240,36.707 130.800 C 36.982 130.360,37.069 130.000,36.900 130.000 C 36.731 130.000,36.368 130.360,36.093 130.800 M273.502 139.800 C 273.607 140.350,273.762 140.800,273.847 140.800 C 273.931 140.800,274.000 140.350,274.000 139.800 C 274.000 139.250,273.845 138.800,273.655 138.800 C 273.466 138.800,273.397 139.250,273.502 139.800 M43.200 173.340 C 43.530 173.656,44.250 174.046,44.800 174.207 C 46.067 174.578,45.788 174.311,44.000 173.444 C 42.984 172.952,42.765 172.923,43.200 173.340 M46.200 174.800 C 46.360 175.059,44.653 175.200,41.370 175.200 C 32.588 175.200,28.259 176.234,22.099 179.803 C 20.131 180.944,14.867 186.102,14.032 187.708 C 13.720 188.308,13.315 188.800,13.132 188.800 C 12.950 188.800,12.800 189.160,12.800 189.600 C 12.800 190.040,12.620 190.400,12.400 190.400 C 12.180 190.400,12.000 190.760,12.000 191.200 C 12.000 191.640,11.820 192.000,11.600 192.000 C 11.380 192.000,11.200 192.362,11.200 192.805 C 11.200 193.248,11.044 193.923,10.854 194.305 C 9.855 196.309,9.651 198.077,9.767 203.736 C 9.896 210.005,10.228 212.800,10.844 212.800 C 11.040 212.800,11.200 213.079,11.200 213.419 C 11.200 214.194,13.272 218.472,14.000 219.200 C 14.110 219.310,14.822 220.210,15.583 221.200 C 16.344 222.190,17.244 223.207,17.583 223.460 C 17.922 223.712,18.740 224.387,19.400 224.959 C 20.060 225.531,20.743 225.999,20.917 226.000 C 21.091 226.000,21.620 226.360,22.092 226.800 C 22.564 227.240,23.187 227.600,23.475 227.600 C 23.764 227.600,24.000 227.780,24.000 228.000 C 24.000 228.220,24.360 228.400,24.800 228.400 C 25.240 228.400,25.600 228.580,25.600 228.800 C 25.600 229.020,26.050 229.200,26.600 229.200 C 27.150 229.200,27.600 229.380,27.600 229.600 C 27.600 229.820,28.241 230.000,29.024 230.000 C 29.807 230.000,30.364 230.135,30.262 230.300 C 30.160 230.465,49.986 230.600,74.320 230.600 L 118.564 230.600 118.811 231.600 C 119.016 232.428,119.109 232.271,119.356 230.685 C 123.398 204.690,157.058 194.427,176.344 213.309 C 180.977 217.844,183.536 222.343,185.549 229.493 L 185.800 230.386 230.100 230.493 C 254.465 230.552,274.400 230.465,274.400 230.300 C 274.400 230.135,275.120 230.000,276.000 230.000 C 276.880 230.000,277.600 229.820,277.600 229.600 C 277.600 229.380,277.960 229.200,278.400 229.200 C 278.840 229.200,279.200 229.020,279.200 228.800 C 279.200 228.580,279.560 228.400,280.000 228.400 C 280.440 228.400,280.800 228.220,280.800 228.000 C 280.800 227.780,281.160 227.600,281.600 227.600 C 282.040 227.600,282.400 227.420,282.400 227.200 C 282.400 226.980,282.664 226.800,282.987 226.800 C 284.166 226.800,290.409 220.710,291.209 218.779 C 291.477 218.130,291.855 217.600,292.049 217.600 C 292.242 217.600,292.400 217.240,292.400 216.800 C 292.400 216.360,292.580 216.000,292.800 216.000 C 293.020 216.000,293.200 215.651,293.200 215.224 C 293.200 214.797,293.380 214.336,293.600 214.200 C 293.820 214.064,294.000 213.524,294.000 213.000 C 294.000 212.476,294.180 211.936,294.400 211.800 C 294.620 211.664,294.800 210.753,294.800 209.776 C 294.800 208.791,294.989 208.000,295.224 208.000 C 295.510 208.000,295.584 206.529,295.450 203.500 C 295.194 197.698,294.815 194.744,294.361 195.024 C 294.163 195.147,294.000 194.697,294.000 194.024 C 294.000 193.351,293.820 192.800,293.600 192.800 C 293.380 192.800,293.200 192.440,293.200 192.000 C 293.200 191.560,293.020 191.200,292.800 191.200 C 292.580 191.200,292.400 190.840,292.400 190.400 C 292.400 189.960,292.220 189.600,292.000 189.600 C 291.780 189.600,291.600 189.320,291.600 188.977 C 291.600 188.123,287.925 183.218,287.276 183.208 C 286.988 183.204,286.864 183.020,287.000 182.800 C 287.136 182.580,287.059 182.400,286.828 182.400 C 286.439 182.400,286.106 182.161,283.919 180.312 C 283.471 179.933,282.766 179.516,282.352 179.385 C 281.939 179.254,281.600 178.968,281.600 178.749 C 281.600 178.531,281.435 178.455,281.232 178.580 C 281.030 178.705,280.625 178.576,280.332 178.294 C 277.823 175.874,261.986 174.254,254.800 175.683 C 247.312 177.172,47.913 176.277,46.969 174.750 C 46.850 174.557,46.573 174.400,46.353 174.400 C 46.133 174.400,46.064 174.580,46.200 174.800 M186.200 258.533 L 186.200 284.600 152.600 284.600 L 119.000 284.600 118.797 260.200 L 118.594 235.800 118.397 260.200 L 118.200 284.600 84.200 284.826 C 52.259 285.039,49.037 285.140,47.000 285.997 C 46.560 286.182,45.615 286.572,44.900 286.864 C 44.185 287.156,43.600 287.531,43.600 287.698 C 43.600 287.864,43.330 288.000,43.000 288.000 C 42.670 288.000,42.400 288.180,42.400 288.400 C 42.400 288.620,42.223 288.800,42.007 288.800 C 41.341 288.800,34.800 294.951,34.800 295.577 C 34.800 295.810,34.620 296.000,34.400 296.000 C 34.180 296.000,34.000 296.270,34.000 296.600 C 34.000 296.930,33.820 297.200,33.600 297.200 C 33.380 297.200,33.200 297.560,33.200 298.000 C 33.200 298.440,33.020 298.800,32.800 298.800 C 32.580 298.800,32.400 299.160,32.400 299.600 C 32.400 300.040,32.220 300.400,32.000 300.400 C 31.780 300.400,31.600 300.839,31.600 301.376 C 31.600 301.913,31.420 302.464,31.200 302.600 C 30.980 302.736,30.800 303.377,30.800 304.024 C 30.800 304.671,30.620 305.200,30.400 305.200 C 30.149 305.200,30.000 307.667,30.000 311.800 C 30.000 315.933,30.149 318.400,30.400 318.400 C 30.620 318.400,30.800 319.019,30.800 319.776 C 30.800 320.533,30.980 321.264,31.200 321.400 C 31.420 321.536,31.600 321.997,31.600 322.424 C 31.600 322.851,31.780 323.200,32.000 323.200 C 32.220 323.200,32.400 323.526,32.400 323.925 C 32.400 324.323,32.760 325.036,33.200 325.508 C 33.640 325.980,34.000 326.604,34.000 326.895 C 34.000 327.186,34.360 327.683,34.800 328.000 C 35.240 328.317,35.600 328.822,35.600 329.123 C 35.600 329.738,39.888 334.000,40.507 334.000 C 40.726 334.000,41.197 334.329,41.553 334.730 C 41.909 335.132,42.785 335.716,43.500 336.028 C 44.215 336.340,44.800 336.731,44.800 336.898 C 44.800 337.064,45.160 337.200,45.600 337.200 C 46.040 337.200,46.400 337.341,46.400 337.513 C 46.400 337.805,48.224 338.399,51.000 339.009 C 52.499 339.339,253.564 339.369,253.893 339.040 C 254.025 338.908,254.633 338.800,255.243 338.800 C 255.853 338.800,256.464 338.620,256.600 338.400 C 256.736 338.180,257.287 338.000,257.824 338.000 C 258.361 338.000,258.800 337.820,258.800 337.600 C 258.800 337.380,259.160 337.200,259.600 337.200 C 260.040 337.200,260.400 337.020,260.400 336.800 C 260.400 336.580,260.760 336.400,261.200 336.400 C 261.640 336.400,262.000 336.250,262.000 336.068 C 262.000 335.885,262.495 335.480,263.100 335.168 C 264.551 334.419,270.800 328.085,270.800 327.363 C 270.800 327.054,270.948 326.800,271.129 326.800 C 271.571 326.800,273.777 321.893,274.456 319.400 C 275.173 316.765,275.178 306.402,274.464 304.200 C 273.911 302.499,273.330 301.040,272.753 299.905 C 272.559 299.523,272.400 298.938,272.400 298.605 C 272.400 298.272,272.220 298.000,272.000 298.000 C 271.780 298.000,271.597 297.775,271.593 297.500 C 271.577 296.407,265.298 289.600,264.306 289.600 C 264.015 289.600,263.517 289.240,263.200 288.800 C 262.883 288.360,262.303 288.000,261.912 288.000 C 261.520 288.000,261.200 287.820,261.200 287.600 C 261.200 287.380,260.840 287.200,260.400 287.200 C 259.960 287.200,259.600 287.020,259.600 286.800 C 259.600 286.580,259.240 286.400,258.800 286.400 C 258.360 286.400,258.000 286.240,258.000 286.044 C 258.000 285.225,253.391 285.075,221.000 284.843 L 187.000 284.600 186.800 258.733 C 186.690 244.506,186.510 232.776,186.400 232.666 C 186.290 232.556,186.200 244.196,186.200 258.533 M353.600 243.600 C 353.600 243.820,353.272 244.000,352.872 244.000 C 352.038 244.000,349.600 246.039,349.600 246.736 C 349.600 246.991,349.420 247.200,349.200 247.200 C 348.963 247.200,348.800 248.667,348.800 250.800 C 348.800 252.933,348.963 254.400,349.200 254.400 C 349.420 254.400,349.602 254.715,349.604 255.100 C 349.606 255.485,350.181 256.250,350.883 256.800 C 351.584 257.350,352.764 258.403,353.506 259.140 C 355.125 260.750,355.241 260.668,355.660 257.604 C 356.263 253.194,358.553 251.073,363.132 250.685 C 364.524 250.567,365.758 250.375,365.874 250.259 C 366.279 249.854,360.124 244.196,358.739 243.700 C 357.071 243.103,353.600 243.035,353.600 243.600 M12.011 244.971 C 11.417 246.534,11.534 246.780,12.247 245.465 C 12.586 244.840,12.764 244.230,12.642 244.109 C 12.521 243.988,12.237 244.376,12.011 244.971 M10.016 250.600 C 9.671 252.389,9.675 252.485,10.065 252.095 C 10.291 251.869,10.389 251.351,10.284 250.942 C 10.179 250.534,10.058 250.380,10.016 250.600 M369.763 265.353 C 368.368 268.988,370.350 277.600,372.582 277.600 C 372.922 277.600,373.200 277.780,373.200 278.000 C 373.200 278.233,374.512 278.400,376.336 278.400 L 379.473 278.400 381.336 276.640 C 382.361 275.671,383.200 274.602,383.200 274.263 C 383.200 273.924,383.380 273.536,383.600 273.400 C 383.820 273.264,384.000 272.364,384.000 271.400 C 384.000 270.436,383.820 269.536,383.600 269.400 C 383.380 269.264,383.200 268.705,383.200 268.158 C 383.200 265.715,381.602 265.028,375.529 264.861 C 370.736 264.729,369.977 264.794,369.763 265.353 M286.799 277.802 C 286.283 278.351,285.954 278.800,286.069 278.800 C 286.466 278.800,288.127 277.194,287.932 276.999 C 287.825 276.891,287.314 277.252,286.799 277.802 M59.767 344.645 C 58.905 345.439,58.559 345.844,58.998 345.545 C 59.438 345.245,60.019 344.791,60.291 344.536 C 60.563 344.280,61.014 343.990,61.293 343.890 C 61.572 343.791,61.695 343.595,61.567 343.455 C 61.438 343.315,60.628 343.850,59.767 344.645 M307.000 358.658 C 306.560 358.753,305.816 358.912,305.347 359.011 C 304.228 359.248,302.000 361.344,302.000 362.160 C 302.000 362.512,301.820 362.800,301.600 362.800 C 301.165 362.800,301.028 368.895,301.454 369.320 C 301.593 369.460,302.494 368.881,303.455 368.035 C 306.652 365.221,310.266 365.253,313.621 368.125 C 314.569 368.936,315.492 369.600,315.672 369.600 C 316.146 369.600,316.077 363.695,315.600 363.400 C 315.380 363.264,315.200 362.886,315.200 362.559 C 315.200 360.463,310.027 358.002,307.000 358.658 M254.428 361.876 C 254.518 362.915,255.144 363.796,255.172 362.924 C 255.187 362.442,255.020 361.936,254.800 361.800 C 254.580 361.664,254.413 361.698,254.428 361.876 M304.672 386.748 L 301.200 390.297 301.200 393.348 C 301.200 395.116,301.368 396.400,301.600 396.400 C 301.820 396.400,302.000 396.678,302.000 397.018 C 302.000 398.619,304.032 399.786,307.086 399.940 C 310.478 400.112,313.720 399.717,313.384 399.174 C 313.257 398.968,313.403 398.800,313.709 398.800 C 314.015 398.800,314.496 398.305,314.779 397.700 C 315.062 397.095,315.452 396.287,315.647 395.905 C 317.072 393.104,316.007 390.352,311.853 386.100 C 308.365 382.530,308.843 382.487,304.672 386.748 M246.950 385.457 C 246.262 386.204,245.812 386.876,245.950 386.951 C 246.308 387.146,248.844 384.472,248.492 384.269 C 248.332 384.176,247.637 384.711,246.950 385.457 M74.184 393.575 C 74.312 393.781,74.760 393.923,75.180 393.892 C 76.177 393.816,75.796 393.200,74.753 393.200 C 74.313 393.200,74.057 393.369,74.184 393.575 " stroke="none" fill="#f3c41c" fill-rule="evenodd"></path><path id="path3" d="M133.286 67.258 C 133.573 68.119,171.189 68.257,172.717 67.403 L 173.800 66.797 172.600 67.099 C 170.934 67.517,135.219 67.479,134.053 67.058 C 133.330 66.797,133.148 66.845,133.286 67.258 M300.905 88.287 C 301.514 88.379,302.414 88.377,302.905 88.282 C 303.397 88.187,302.900 88.111,301.800 88.114 C 300.700 88.117,300.297 88.195,300.905 88.287 M297.944 89.224 L 297.000 90.047 298.200 89.345 C 299.779 88.420,299.803 88.400,299.311 88.400 C 299.079 88.400,298.464 88.771,297.944 89.224 M307.087 90.809 C 307.795 91.551,308.442 92.078,308.525 91.979 C 308.608 91.881,308.029 91.273,307.238 90.629 L 305.800 89.458 307.087 90.809 M297.800 108.239 C 296.040 110.112,294.525 111.724,294.433 111.822 C 294.342 111.920,294.345 112.000,294.442 112.000 C 294.538 112.000,296.229 110.380,298.200 108.400 C 300.171 106.420,301.607 104.808,301.392 104.817 C 301.176 104.826,299.560 106.366,297.800 108.239 M305.211 108.204 C 307.075 110.186,308.682 111.755,308.782 111.689 C 308.882 111.623,307.357 110.001,305.393 108.085 L 301.822 104.600 305.211 108.204 M148.200 203.633 C 136.156 205.705,127.297 212.051,122.284 222.200 C 118.793 229.268,118.747 229.773,118.883 259.200 L 119.000 284.600 152.600 284.600 L 186.200 284.600 186.200 258.200 C 186.200 228.697,186.287 229.707,183.149 222.869 C 177.166 209.832,161.689 201.314,148.200 203.633 M360.200 251.200 C 359.908 251.673,360.299 251.673,361.400 251.200 C 362.171 250.869,362.169 250.855,361.324 250.828 C 360.842 250.813,360.336 250.980,360.200 251.200 M357.641 253.014 C 356.959 253.792,356.402 254.557,356.404 254.714 C 356.407 254.871,356.868 254.418,357.428 253.706 C 357.989 252.995,358.752 252.236,359.124 252.019 C 359.496 251.802,359.594 251.619,359.341 251.612 C 359.089 251.605,358.324 252.236,357.641 253.014 M355.524 259.000 C 355.434 259.770,355.504 260.400,355.680 260.400 C 355.856 260.400,356.000 259.770,356.000 259.000 C 356.000 258.230,355.930 257.600,355.844 257.600 C 355.758 257.600,355.614 258.230,355.524 259.000 M372.117 264.697 C 373.611 264.774,375.951 264.774,377.317 264.696 C 378.682 264.618,377.460 264.555,374.600 264.555 C 371.740 264.556,370.622 264.620,372.117 264.697 M307.500 366.282 C 307.995 366.378,308.805 366.378,309.300 366.282 C 309.795 366.187,309.390 366.109,308.400 366.109 C 307.410 366.109,307.005 366.187,307.500 366.282 M304.789 367.072 C 303.387 368.023,301.122 370.000,301.433 370.000 C 301.577 370.000,302.262 369.505,302.957 368.900 C 303.651 368.295,304.665 367.494,305.209 367.121 C 305.754 366.748,306.105 366.433,305.989 366.421 C 305.873 366.409,305.333 366.702,304.789 367.072 M313.876 368.700 C 314.598 369.415,315.416 369.995,315.694 369.988 C 315.972 369.981,315.840 369.777,315.400 369.534 C 314.960 369.292,314.142 368.712,313.581 368.246 C 313.021 367.781,313.154 367.985,313.876 368.700 M311.496 385.700 C 313.152 387.295,314.842 389.140,315.252 389.800 C 315.662 390.460,315.998 390.752,315.999 390.448 C 316.000 389.891,309.298 382.800,308.770 382.800 C 308.614 382.800,309.840 384.105,311.496 385.700 M303.396 387.204 C 302.766 387.862,302.382 388.400,302.543 388.400 C 302.956 388.400,304.922 386.388,304.713 386.180 C 304.619 386.086,304.026 386.546,303.396 387.204 " stroke="none" fill="#a36c43" fill-rule="evenodd"></path><path id="path4" d="M298.469 89.215 C 297.736 89.661,296.693 90.470,296.150 91.013 C 295.608 91.556,294.795 92.000,294.344 92.000 C 293.395 92.000,281.600 103.673,281.600 104.612 C 281.600 104.935,281.420 105.200,281.200 105.200 C 280.650 105.200,280.689 110.645,281.246 111.685 C 281.936 112.976,284.304 115.200,284.987 115.200 C 285.324 115.200,285.600 115.380,285.600 115.600 C 285.600 115.826,286.733 116.000,288.200 116.000 C 289.667 116.000,290.800 115.826,290.800 115.600 C 290.800 115.380,291.088 115.200,291.440 115.200 C 292.155 115.200,294.400 112.968,294.400 112.257 C 294.400 111.591,301.020 104.800,301.669 104.800 C 302.558 104.800,308.800 111.315,308.800 112.242 C 308.800 113.153,310.858 115.200,311.773 115.200 C 312.092 115.200,312.464 115.380,312.600 115.600 C 313.790 117.525,320.604 115.168,321.850 112.400 C 323.290 109.202,323.591 107.489,322.800 107.000 C 322.580 106.864,322.400 106.309,322.400 105.767 C 322.400 104.583,310.031 92.000,308.866 92.000 C 308.472 92.000,307.626 91.453,306.985 90.785 C 304.594 88.289,301.057 87.637,298.469 89.215 M363.600 250.797 C 358.613 251.458,356.539 253.390,356.132 257.752 C 355.996 259.208,355.730 260.400,355.542 260.400 C 355.047 260.400,355.104 280.294,355.600 280.600 C 355.820 280.736,356.000 281.113,356.000 281.437 C 356.000 282.215,358.603 284.800,359.387 284.800 C 359.724 284.800,360.000 284.980,360.000 285.200 C 360.000 285.426,361.133 285.600,362.600 285.600 C 364.067 285.600,365.200 285.426,365.200 285.200 C 365.200 284.980,365.560 284.800,366.000 284.800 C 366.440 284.800,366.800 284.620,366.800 284.400 C 366.800 284.180,367.060 284.000,367.377 284.000 C 367.695 284.000,368.274 283.460,368.664 282.800 C 369.054 282.140,369.519 281.600,369.698 281.600 C 369.878 281.600,369.900 277.720,369.749 272.977 L 369.473 264.354 374.637 264.560 C 377.477 264.673,381.105 264.878,382.700 265.016 C 384.667 265.185,385.600 265.126,385.600 264.833 C 385.600 264.595,385.960 264.400,386.400 264.400 C 386.840 264.400,387.200 264.220,387.200 264.000 C 387.200 263.780,387.468 263.600,387.795 263.600 C 389.784 263.600,391.342 256.432,389.900 253.917 C 389.108 252.535,387.692 251.200,387.018 251.200 C 386.678 251.200,386.400 251.020,386.400 250.800 C 386.400 250.336,367.095 250.333,363.600 250.797 M305.000 367.281 C 304.340 367.752,303.320 368.576,302.733 369.112 C 302.145 369.648,301.493 369.981,301.282 369.851 C 300.874 369.598,289.600 380.399,289.600 381.042 C 289.600 381.252,289.240 381.683,288.800 382.000 C 288.280 382.375,288.000 383.035,288.000 383.888 C 288.000 384.610,287.820 385.200,287.600 385.200 C 287.380 385.200,287.200 385.639,287.200 386.176 C 287.200 386.713,287.380 387.264,287.600 387.400 C 287.820 387.536,288.000 388.132,288.001 388.724 C 288.002 389.857,289.877 392.400,290.712 392.400 C 290.980 392.400,291.200 392.580,291.200 392.800 C 291.200 393.020,291.549 393.200,291.976 393.200 C 292.403 393.200,292.864 393.380,293.000 393.600 C 293.136 393.820,294.137 394.000,295.224 394.000 C 296.311 394.000,297.200 393.820,297.200 393.600 C 297.200 393.380,297.560 393.200,298.000 393.200 C 298.440 393.200,298.800 393.020,298.800 392.800 C 298.800 392.580,299.083 392.400,299.429 392.400 C 300.310 392.400,301.200 391.411,301.200 390.431 C 301.200 389.491,307.594 382.800,308.492 382.800 C 309.281 382.800,316.000 389.750,316.000 390.567 C 316.000 391.582,317.832 393.200,318.982 393.200 C 319.542 393.200,320.000 393.380,320.000 393.600 C 320.000 393.820,320.990 394.000,322.200 394.000 C 323.410 394.000,324.400 393.820,324.400 393.600 C 324.400 393.380,324.760 393.200,325.200 393.200 C 325.640 393.200,326.001 393.065,326.001 392.900 C 326.002 392.735,326.541 392.240,327.200 391.800 C 327.859 391.360,328.398 390.775,328.399 390.500 C 328.399 390.225,328.580 390.000,328.800 390.000 C 329.386 390.000,329.301 383.768,328.700 382.700 C 327.869 381.223,316.489 370.000,315.823 370.000 C 315.481 370.000,314.527 369.396,313.701 368.658 C 310.853 366.111,307.406 365.565,305.000 367.281 " stroke="none" fill="#2caccb" fill-rule="evenodd"></path></g></svg>